<svg width="11" height="14" viewBox="0 0 11 14" fill="none" xmlns="http://www.w3.org/2000/svg">
	<path d="M4.0918 1.48047V6.68555H6.50391C7.05729 6.68555 7.46094 6.5651 7.71484 6.32422C7.97526 6.07682 8.14779 5.5918 8.23242 4.86914H8.59375V9.35156H8.23242C8.22591 8.83724 8.15755 8.45964 8.02734 8.21875C7.90365 7.97786 7.72786 7.79883 7.5 7.68164C7.27865 7.55794 6.94661 7.49609 6.50391 7.49609H4.0918V11.6562C4.0918 12.3268 4.13411 12.7695 4.21875 12.9844C4.28385 13.1471 4.42057 13.2871 4.62891 13.4043C4.91536 13.5605 5.21484 13.6387 5.52734 13.6387H6.00586V14H0.322266V13.6387H0.791016C1.33789 13.6387 1.73503 13.4792 1.98242 13.1602C2.13867 12.9518 2.2168 12.4505 2.2168 11.6562V3.10156C2.2168 2.43099 2.17448 1.98828 2.08984 1.77344C2.02474 1.61068 1.89128 1.4707 1.68945 1.35352C1.40951 1.19727 1.11003 1.11914 0.791016 1.11914H0.322266V0.757812H10.1758L10.3027 3.66797H9.96094C9.79167 3.04948 9.5931 2.59701 9.36523 2.31055C9.14388 2.01758 8.86719 1.80599 8.53516 1.67578C8.20964 1.54557 7.70182 1.48047 7.01172 1.48047H4.0918Z" fill="black"/>
	</svg>
	